<?xml version="1.0" encoding="utf-8"?>
<!-- Generator: Adobe Illustrator 28.0.0, SVG Export Plug-In . SVG Version: 6.00 Build 0)  -->
<svg version="1.1" id="Layer_1" xmlns="http://www.w3.org/2000/svg" xmlns:xlink="http://www.w3.org/1999/xlink" x="0px" y="0px"
	 viewBox="0 0 200 46" style="enable-background:new 0 0 200 46;" xml:space="preserve">
<g>
	<g>
		<g>
			<polygon points="65.073,31.264 53.639,20.308 53.639,45.765 65.073,45.765 			"/>
			<polygon points="72.365,33.258 84.94,45.322 85.383,45.748 96.169,45.748 96.169,0.218 94.278,2.042 85.008,10.936 
				84.736,11.192 84.736,29.594 83.304,28.214 55.701,1.735 55.428,1.479 53.639,1.479 53.639,15.298 65.073,26.255 			"/>
		</g>
		<g>
			<path d="M9.389,41.743c3.749,2.641,8.162,4.038,12.762,4.038h21.98l-7.054-7.054l-3.68-3.681l-0.256-0.256H22.236h-0.204h-0.034
				c-2.931-0.034-5.674-1.193-7.753-3.272c-2.113-2.113-3.272-4.907-3.272-7.889c0-2.641,0.937-5.197,2.641-7.208
				c0.204-0.239,0.409-0.46,0.63-0.682c0.971-0.971,2.096-1.755,3.357-2.317c1.295-0.579,2.692-0.886,4.123-0.937
				c0.136,0,0.273-0.017,0.409-0.017c2.965,0,5.759,1.159,7.872,3.255c2.113,2.113,3.272,4.907,3.272,7.889
				c0,1.585-0.324,3.118-0.954,4.532l-0.239,0.562l7.974,7.974l0.596-0.903c2.368-3.612,3.629-7.821,3.629-12.149
				c0-5.913-2.3-11.467-6.492-15.659s-9.746-6.492-15.659-6.492c-0.153,0-0.324,0.017-0.477,0.017
				c-4.175,0.085-8.196,1.329-11.672,3.612C8.434,6.131,7.02,7.341,5.759,8.721C2.045,12.793-0.017,18.11,0,23.63
				c0,3.612,0.886,7.191,2.573,10.36C4.209,37.075,6.543,39.716,9.389,41.743z"/>
		</g>
	</g>
	<g>
		<g>
			<polygon points="177.849,37.466 189.027,26.272 189.027,45.782 200,45.782 200,1.479 198.279,1.479 177.832,21.892 
				157.419,1.479 155.698,1.479 155.698,15.298 166.671,26.272 			"/>
			<polygon points="166.654,31.264 155.681,20.308 155.681,45.765 166.654,45.765 			"/>
		</g>
		<g>
			<polygon points="120.41,45.765 131.383,45.765 131.383,33.752 120.41,22.778 			"/>
			<polygon points="120.41,17.769 131.383,28.725 131.383,12.436 148.065,12.436 148.065,1.479 103.763,1.479 103.763,12.436 
				120.41,12.436 			"/>
		</g>
	</g>
</g>
</svg>
