<?xml version="1.0" encoding="utf-8"?>
<!-- Generator: Adobe Illustrator 27.8.1, SVG Export Plug-In . SVG Version: 6.00 Build 0)  -->
<svg version="1.1" id="Layer_1" xmlns="http://www.w3.org/2000/svg" xmlns:xlink="http://www.w3.org/1999/xlink" x="0px" y="0px"
	 viewBox="0 0 100 15.2" style="enable-background:new 0 0 100 15.2;" xml:space="preserve">
<style type="text/css">
	.st0{fill:#FFFFFF;}
	.st1{opacity:0.82;}
	.st2{fill:#A2AAB1;}
	.st3{fill:none;}
	.st4{opacity:0.73;}
	.st5{fill:#E3E4E6;}
	.st6{opacity:0.49;}
	.st7{fill:#BFC3C8;}
</style>
<g>
	<path class="st0" d="M56.4,8.7c-13.2,0-26.4,2.4-38.7,6.4h74.5c-5.5-2.3-13.2-4.6-24-5.8C64.3,8.9,60.4,8.7,56.4,8.7"/>
	<g class="st1">
		<path class="st2" d="M10.7,15.2h10.9c12-3.8,24.8-6.1,37.7-6.1c3.9,0,7.7,0.2,11.5,0.6c10.5,1.1,18,3.3,23.4,5.5h5.9V6.8
			C93.8,4,86.3,2.2,78,1.2c-3.6-0.4-7.3-0.6-11-0.6C48,0.6,28.5,6,10.7,15.2"/>
		<rect x="10" y="0" class="st3" width="90" height="15.2"/>
	</g>
	<g class="st4">
		<path class="st5" d="M100,15.2V8.3C89.6,5.8,76.3,4.4,64.7,4.4C39.7,4.4,18.3,8.4,0,15v0.2H100z"/>
		<polygon class="st3" points="0,15.2 100,15 100,3.7 0,3.7 		"/>
	</g>
	<g class="st6">
		<path class="st7" d="M21.2,15.2h11.6c11.4-3.5,23.6-5.5,35.8-5.5c3.9,0,7.7,0.2,11.5,0.6c8.4,0.9,14.9,2.5,19.9,4.2V4.1
			c-3.9-1-8.2-1.8-12.6-2.3c-3.6-0.4-7.3-0.6-11-0.6C57.8,1.2,38.7,6.3,21.2,15.2"/>
		<polygon class="st3" points="20.5,15.2 100,15.1 100,0.6 20.5,0.6 		"/>
	</g>
	<path class="st0" d="M59.2,9.1c-12.9,0-25.7,2.2-37.7,6.1h72.6c-5.3-2.2-12.9-4.3-23.4-5.5C66.9,9.3,63.1,9.1,59.2,9.1"/>
</g>
</svg>
